<svg width="36" height="37" viewBox="0 0 36 37" fill="none" xmlns="http://www.w3.org/2000/svg">
<path d="M35.5892 18.4821C35.5892 8.74725 27.6974 0.855469 17.9626 0.855469C8.22771 0.855469 0.335938 8.74725 0.335938 18.4821C0.335938 27.28 6.78178 34.5723 15.2084 35.8946V23.5773H10.7329V18.4821H15.2084V14.5987C15.2084 10.1811 17.84 7.74087 21.8663 7.74087C23.7948 7.74087 25.8119 8.08514 25.8119 8.08514V12.4229H23.5893C21.3996 12.4229 20.7167 13.7817 20.7167 15.1757V18.4821H25.6054L24.8239 23.5773H20.7167V35.8946C29.1434 34.5723 35.5892 27.2801 35.5892 18.4821Z" fill="#1877F2"/>
<path d="M24.8254 23.5767L25.6069 18.4815H20.7182V15.1751C20.7182 13.7809 21.4011 12.4223 23.5908 12.4223H25.8134V8.0845C25.8134 8.0845 23.7963 7.74023 21.8677 7.74023C17.8415 7.74023 15.2099 10.1804 15.2099 14.5981V18.4815H10.7344V23.5767H15.2099V35.894C16.121 36.0368 17.0418 36.1083 17.9641 36.1081C18.8863 36.1084 19.8071 36.0368 20.7182 35.894V23.5767H24.8254Z" fill="white"/>
</svg>
