<svg width="36" height="37" viewBox="0 0 36 37" fill="none" xmlns="http://www.w3.org/2000/svg">
<g clip-path="url(#clip0_1792_6821)">
<path d="M27.5924 0.855469H8.86405C4.3008 0.855469 0.601562 4.55471 0.601562 9.11796V27.8463C0.601562 32.4095 4.3008 36.1087 8.86405 36.1087H27.5924C32.1556 36.1087 35.8548 32.4095 35.8548 27.8463V9.11796C35.8548 4.55471 32.1556 0.855469 27.5924 0.855469Z" fill="url(#paint0_radial_1792_6821)"/>
<path d="M27.5924 0.855469H8.86405C4.3008 0.855469 0.601562 4.55471 0.601562 9.11796V27.8463C0.601562 32.4095 4.3008 36.1087 8.86405 36.1087H27.5924C32.1556 36.1087 35.8548 32.4095 35.8548 27.8463V9.11796C35.8548 4.55471 32.1556 0.855469 27.5924 0.855469Z" fill="url(#paint1_radial_1792_6821)"/>
<path d="M18.233 4.71094C14.4931 4.71094 14.0237 4.72732 12.5549 4.79411C11.0888 4.86131 10.0881 5.09335 9.21256 5.43391C8.30671 5.78561 7.53844 6.25616 6.77306 7.02182C6.00699 7.78734 5.53644 8.55561 5.18363 9.46104C4.84211 10.3369 4.6098 11.338 4.54384 12.8034C4.47815 14.2723 4.46094 14.7419 4.46094 18.4819C4.46094 22.2219 4.47746 22.6898 4.54411 24.1586C4.61159 25.6247 4.84363 26.6254 5.18391 27.5009C5.53589 28.4068 6.00644 29.1751 6.77209 29.9404C7.53734 30.7065 8.30561 31.1782 9.21077 31.5299C10.087 31.8704 11.0879 32.1025 12.5536 32.1697C14.0226 32.2365 14.4916 32.2528 18.2313 32.2528C21.9716 32.2528 22.4396 32.2365 23.9084 32.1697C25.3744 32.1025 26.3762 31.8704 27.2525 31.5299C28.1579 31.1782 28.9251 30.7065 29.6902 29.9404C30.4562 29.1751 30.9266 28.4068 31.2796 27.5014C31.6181 26.6254 31.8505 25.6244 31.9194 24.1589C31.9853 22.6901 32.0026 22.2219 32.0026 18.4819C32.0026 14.7419 31.9853 14.2726 31.9194 12.8036C31.8505 11.3376 31.6181 10.337 31.2796 9.46146C30.9266 8.55561 30.4562 7.78734 29.6902 7.02182C28.9242 6.25588 28.1582 5.78534 27.2516 5.43404C26.3737 5.09335 25.3725 4.86118 23.9064 4.79411C22.4375 4.72732 21.9698 4.71094 18.2287 4.71094H18.233ZM16.9976 7.19258C17.3643 7.19203 17.7735 7.19258 18.233 7.19258C21.9099 7.19258 22.3456 7.2058 23.7976 7.27176C25.1403 7.33318 25.869 7.5575 26.3545 7.74603C26.9971 7.99555 27.4553 8.29397 27.937 8.77608C28.419 9.25806 28.7173 9.71704 28.9675 10.3597C29.156 10.8445 29.3806 11.5732 29.4417 12.9159C29.5077 14.3676 29.522 14.8036 29.522 18.4787C29.522 22.1539 29.5077 22.59 29.4417 24.0416C29.3803 25.3842 29.156 26.113 28.9675 26.5979C28.7179 27.2405 28.419 27.6981 27.937 28.1798C27.455 28.6618 26.9974 28.9601 26.3545 29.2098C25.8696 29.3991 25.1403 29.6229 23.7976 29.6843C22.3459 29.7503 21.9099 29.7646 18.233 29.7646C14.5559 29.7646 14.1201 29.7503 12.6685 29.6843C11.3258 29.6223 10.5971 29.398 10.1112 29.2095C9.46869 28.9598 9.00957 28.6616 8.5276 28.1796C8.04562 27.6976 7.74734 27.2397 7.49713 26.5968C7.3086 26.1119 7.084 25.3831 7.02286 24.0405C6.9569 22.5888 6.94368 22.1528 6.94368 18.4753C6.94368 14.7979 6.9569 14.3641 7.02286 12.9124C7.08428 11.5698 7.3086 10.841 7.49713 10.3556C7.74679 9.71291 8.04562 9.25393 8.52773 8.77195C9.00971 8.28997 9.46869 7.99156 10.1114 7.74148C10.5968 7.55213 11.3258 7.32836 12.6685 7.26666C13.9388 7.20924 14.4311 7.19202 16.9976 7.18913V7.19258ZM25.5839 9.47908C24.6715 9.47908 23.9314 10.2186 23.9314 11.131C23.9314 12.0433 24.6715 12.7835 25.5839 12.7835C26.4962 12.7835 27.2363 12.0433 27.2363 11.131C27.2363 10.2187 26.4962 9.47853 25.5839 9.47853V9.47908ZM18.233 11.4099C14.3276 11.4099 11.1611 14.5764 11.1611 18.4819C11.1611 22.3874 14.3276 25.5524 18.233 25.5524C22.1385 25.5524 25.3039 22.3874 25.3039 18.4819C25.3039 14.5765 22.1383 11.4099 18.2327 11.4099H18.233ZM18.233 13.8915C20.7681 13.8915 22.8234 15.9465 22.8234 18.4819C22.8234 21.017 20.7681 23.0723 18.233 23.0723C15.6978 23.0723 13.6428 21.017 13.6428 18.4819C13.6428 15.9465 15.6978 13.8915 18.233 13.8915Z" fill="white"/>
</g>
<defs>
<radialGradient id="paint0_radial_1792_6821" cx="0" cy="0" r="1" gradientUnits="userSpaceOnUse" gradientTransform="translate(9.96571 38.8239) rotate(-90) scale(34.9386 32.4957)">
<stop stop-color="#FFDD55"/>
<stop offset="0.1" stop-color="#FFDD55"/>
<stop offset="0.5" stop-color="#FF543E"/>
<stop offset="1" stop-color="#C837AB"/>
</radialGradient>
<radialGradient id="paint1_radial_1792_6821" cx="0" cy="0" r="1" gradientUnits="userSpaceOnUse" gradientTransform="translate(-5.3035 3.39494) rotate(78.681) scale(15.6178 64.3769)">
<stop stop-color="#3771C8"/>
<stop offset="0.128" stop-color="#3771C8"/>
<stop offset="1" stop-color="#6600FF" stop-opacity="0"/>
</radialGradient>
<clipPath id="clip0_1792_6821">
<rect width="35.2533" height="35.2533" fill="white" transform="translate(0.597656 0.855469)"/>
</clipPath>
</defs>
</svg>
