<svg width="37" height="37" viewBox="0 0 37 37" fill="none" xmlns="http://www.w3.org/2000/svg">
<g clip-path="url(#clip0_1792_6809)">
<path d="M28.2211 0.580078H9.20018C4.56564 0.580078 0.808594 4.33712 0.808594 8.97167V27.9926C0.808594 32.6271 4.56564 36.3842 9.20018 36.3842H28.2211C32.8557 36.3842 36.6127 32.6271 36.6127 27.9926V8.97167C36.6127 4.33712 32.8557 0.580078 28.2211 0.580078Z" fill="white"/>
<path d="M28.2211 0.580078H9.20018C4.56564 0.580078 0.808594 4.33712 0.808594 8.97167V27.9926C0.808594 32.6271 4.56564 36.3842 9.20018 36.3842H28.2211C32.8557 36.3842 36.6127 32.6271 36.6127 27.9926V8.97167C36.6127 4.33712 32.8557 0.580078 28.2211 0.580078Z" fill="#0A66C2"/>
<path d="M26.6406 31.0252H30.7343C30.8827 31.0252 31.0249 30.9663 31.1299 30.8614C31.2348 30.7565 31.2937 30.6143 31.2938 30.4659L31.2959 21.8167C31.2959 17.296 30.3217 13.8212 25.0388 13.8212C23.0306 13.7465 21.1367 14.7818 20.1148 16.5105C20.1098 16.5188 20.1022 16.5254 20.0931 16.529C20.0841 16.5327 20.074 16.5333 20.0646 16.5308C20.0552 16.5282 20.0468 16.5226 20.0409 16.5149C20.0349 16.5072 20.0316 16.4977 20.0316 16.4879V14.798C20.0316 14.6496 19.9726 14.5073 19.8677 14.4024C19.7628 14.2975 19.6205 14.2386 19.4721 14.2386H15.5872C15.4389 14.2386 15.2966 14.2975 15.1916 14.4024C15.0867 14.5073 15.0278 14.6496 15.0278 14.798V30.4651C15.0278 30.6135 15.0867 30.7558 15.1916 30.8607C15.2966 30.9656 15.4389 31.0245 15.5872 31.0245H19.6806C19.829 31.0245 19.9713 30.9656 20.0762 30.8607C20.1811 30.7558 20.2401 30.6135 20.2401 30.4651V22.7206C20.2401 20.5309 20.6555 18.4102 23.3703 18.4102C26.0465 18.4102 26.0812 20.9159 26.0812 22.8625V30.4658C26.0812 30.6142 26.1401 30.7565 26.245 30.8614C26.35 30.9663 26.4923 31.0252 26.6406 31.0252ZM6.12109 8.91942C6.12109 10.5787 7.4871 11.944 9.14654 11.944C10.8056 11.9439 12.1707 10.5777 12.1707 8.91872C12.1704 7.2597 10.8051 5.89453 9.14598 5.89453C7.48641 5.89453 6.12109 7.26012 6.12109 8.91942ZM7.09438 31.0252H11.1932C11.3416 31.0252 11.4839 30.9663 11.5888 30.8614C11.6937 30.7565 11.7527 30.6142 11.7527 30.4658V14.798C11.7527 14.6496 11.6937 14.5073 11.5888 14.4024C11.4839 14.2975 11.3416 14.2386 11.1932 14.2386H7.09438C6.94601 14.2386 6.80371 14.2975 6.69879 14.4024C6.59388 14.5073 6.53494 14.6496 6.53494 14.798V30.4658C6.53494 30.6142 6.59388 30.7565 6.69879 30.8614C6.80371 30.9663 6.94601 31.0252 7.09438 31.0252Z" fill="white"/>
</g>
<defs>
<clipPath id="clip0_1792_6809">
<rect width="35.8041" height="35.8041" fill="white" transform="translate(0.8125 0.580078)"/>
</clipPath>
</defs>
</svg>
