<svg width="36" height="35" viewBox="0 0 36 35" fill="none" xmlns="http://www.w3.org/2000/svg">
<g clip-path="url(#clip0_1792_6814)">
<path d="M17.9762 0.130859C13.3754 0.130859 8.95901 1.96006 5.70837 5.21287C2.45437 8.46697 0.625901 12.8802 0.625 17.4821C0.625 22.0821 2.45501 26.4985 5.70837 29.7513C8.95901 33.0041 13.3754 34.8333 17.9762 34.8333C22.577 34.8333 26.9934 33.0041 30.2441 29.7513C33.4974 26.4985 35.3274 22.0821 35.3274 17.4821C35.3274 12.8821 33.4974 8.46568 30.2441 5.21287C26.9934 1.96006 22.577 0.130859 17.9762 0.130859Z" fill="url(#paint0_linear_1792_6814)"/>
<path d="M8.48264 17.2989C13.5416 15.0953 16.9143 13.6424 18.6006 12.9405C23.421 10.9362 24.4214 10.5881 25.0747 10.5763C25.2184 10.574 25.5384 10.6095 25.7471 10.7783C25.9206 10.9206 25.9694 11.1131 25.9938 11.2482C26.0155 11.3832 26.0453 11.691 26.0209 11.9312C25.7607 14.6748 24.6301 21.3328 24.0554 24.4059C23.8141 25.7061 23.3342 26.1421 22.8706 26.1846C21.8621 26.2774 21.0975 25.5188 20.1215 24.8792C18.5952 23.878 17.733 23.255 16.25 22.2782C14.5366 21.1493 15.6482 20.5287 16.6242 19.5147C16.879 19.2493 21.3198 15.2111 21.4039 14.8448C21.4147 14.799 21.4256 14.6282 21.3225 14.5382C21.2222 14.4479 21.0731 14.4788 20.9647 14.5032C20.8101 14.5379 18.3728 16.1505 13.6446 19.3407C12.9533 19.8162 12.327 20.048 11.7631 20.0358C11.145 20.0225 9.95207 19.6855 9.06553 19.3976C7.98108 19.0444 7.11623 18.8576 7.19214 18.2576C7.2301 17.9453 7.66117 17.6256 8.48264 17.2989Z" fill="white"/>
</g>
<defs>
<linearGradient id="paint0_linear_1792_6814" x1="1735.75" y1="0.130859" x2="1735.75" y2="3470.38" gradientUnits="userSpaceOnUse">
<stop stop-color="#2AABEE"/>
<stop offset="1" stop-color="#229ED9"/>
</linearGradient>
<clipPath id="clip0_1792_6814">
<rect width="34.7024" height="34.7024" fill="white" transform="translate(0.625 0.130859)"/>
</clipPath>
</defs>
</svg>
