<svg width="44" height="43" viewBox="0 0 44 43" fill="none" xmlns="http://www.w3.org/2000/svg">
<path d="M25.9212 22.038C25.8818 22.7899 25.7118 23.5293 25.42 24.2221C25.1811 24.75 24.7879 25.1932 24.2921 25.4931C23.9591 25.6722 23.5939 25.7885 23.218 25.8333C22.6743 25.9408 22.1147 25.9408 21.571 25.8333C21.2142 25.7384 20.8797 25.5741 20.5864 25.3499C20.4087 25.1933 20.2639 25.0029 20.1603 24.7899C20.0568 24.5768 19.9966 24.3453 19.9833 24.1088C19.97 23.8723 20.0038 23.6355 20.0827 23.4122C20.1617 23.1888 20.2842 22.9834 20.4432 22.8078C20.7765 22.4799 21.1901 22.2453 21.6426 22.1275C22.1296 21.9754 22.6362 21.9038 23.1464 21.9127C23.6118 21.8859 24.0773 21.8859 24.5428 21.9127C24.976 21.9467 25.4056 22.0058 25.8317 22.0917L25.9212 22.038Z" fill="black"/>
<path d="M31.2906 3.58203H13.3885C11.0146 3.58203 8.73784 4.52508 7.0592 6.20373C5.38055 7.88237 4.4375 10.1591 4.4375 12.5331V30.4351C4.4375 32.8091 5.38055 35.0858 7.0592 36.7644C8.73784 38.4431 11.0146 39.3861 13.3885 39.3861H31.2906C33.6645 39.3861 35.9413 38.4431 37.6199 36.7644C39.2986 35.0858 40.2416 32.8091 40.2416 30.4351V12.5331C40.2416 10.1591 39.2986 7.88237 37.6199 6.20373C35.9413 4.52508 33.6645 3.58203 31.2906 3.58203ZM14.3194 26.0133C14.6016 26.9554 15.0371 27.8445 15.6084 28.6449C16.4239 29.7714 17.5498 30.6361 18.8487 31.1333C19.6489 31.4305 20.4867 31.6238 21.337 31.7062C22.1713 31.7867 23.0091 31.7867 23.8433 31.7062C24.8165 31.6315 25.7685 31.3829 26.654 30.9722C27.6561 30.4846 28.5138 29.7442 29.1423 28.8239C29.5205 28.2836 29.7702 27.6641 29.8726 27.0126C29.975 26.361 29.9273 25.6948 29.7331 25.0645C29.4967 24.2675 28.9904 23.5776 28.3009 23.1132L27.9429 22.8625C27.9429 23.0237 27.9429 23.1669 27.8534 23.3101C27.7281 24.1157 27.4595 24.8891 27.0657 25.6016C26.7172 26.2399 26.2254 26.7887 25.629 27.2049C25.0326 27.6212 24.3479 27.8935 23.6285 28.0004C22.6822 28.1857 21.705 28.1365 20.7821 27.8572C20.0165 27.646 19.3192 27.2388 18.7591 26.6757C18.1452 26.051 17.7604 25.2372 17.6671 24.3663C17.5774 23.6293 17.6979 22.8819 18.0147 22.2104C18.3314 21.5389 18.8315 20.9706 19.4573 20.5711C20.1081 20.1391 20.8384 19.8409 21.6056 19.6939C22.3628 19.5686 23.129 19.5149 23.897 19.5328C24.4966 19.5486 25.0945 19.6024 25.6872 19.6939H25.7947C25.715 19.2041 25.5515 18.7317 25.3113 18.2975C25.1379 18.008 24.9071 17.757 24.6331 17.5599C24.3591 17.3629 24.0477 17.224 23.718 17.1518C22.9306 16.91 22.0887 16.91 21.3012 17.1518C20.7337 17.3525 20.2405 17.7208 19.887 18.208V18.3333L18.0968 17.0981V16.9728C18.8427 15.8914 19.9783 15.1408 21.2654 14.8782C22.3632 14.6389 23.5043 14.6882 24.5773 15.0214C25.1789 15.2057 25.736 15.5123 26.2135 15.922C26.691 16.3317 27.0787 16.8357 27.3521 17.4024C27.6672 18.0451 27.8802 18.7343 27.9787 19.4433C28.031 19.751 28.0609 20.0621 28.0682 20.3742L28.6053 20.6248C29.4449 21.0706 30.1874 21.6792 30.7893 22.415C31.4087 23.1794 31.8151 24.0924 31.9709 25.0645C32.098 25.6517 32.1409 26.255 32.0962 26.8547C32.0046 28.3452 31.4188 29.7625 30.4313 30.8827C29.1831 32.3584 27.485 33.3835 25.5977 33.8007C24.7667 33.9747 23.9221 34.0765 23.0735 34.105C22.3026 34.1375 21.5303 34.1075 20.7642 34.0155C19.5215 33.8698 18.3116 33.5189 17.1838 32.9772C15.7304 32.2408 14.4958 31.1358 13.6034 29.7727C12.9425 28.7444 12.4415 27.6217 12.1175 26.443C11.8776 25.5568 11.7039 24.6528 11.5983 23.7397V21.4841C11.5983 20.7322 11.5983 19.9803 11.7236 19.2284C11.7973 18.3779 11.9349 17.5341 12.1354 16.7042C12.4088 15.6588 12.8308 14.658 13.3885 13.7325C14.5067 11.7373 16.3344 10.2356 18.5085 9.52551C19.2887 9.26068 20.0918 9.0689 20.9074 8.95265C21.9305 8.83628 22.9635 8.83628 23.9865 8.95265C25.2228 9.06537 26.4323 9.37983 27.567 9.88355C29.2044 10.6058 30.5973 11.7873 31.577 13.2849C32.264 14.3659 32.7718 15.5508 33.0808 16.7937L30.9683 17.3666V17.2234C30.7306 16.3754 30.3815 15.5628 29.93 14.8066C29.0121 13.3154 27.589 12.2036 25.92 11.6738C25.0413 11.3756 24.1255 11.2009 23.1989 11.1546C22.5137 11.1007 21.8253 11.1007 21.1401 11.1546C20.0827 11.2581 19.0522 11.5491 18.0968 12.0139C16.862 12.6587 15.8464 13.6556 15.1787 14.8782C14.7165 15.7157 14.3731 16.6135 14.1583 17.5456C13.9693 18.3037 13.8436 19.0761 13.7824 19.855C13.7374 20.6002 13.7374 21.3475 13.7824 22.0928C13.791 23.4173 13.9715 24.7352 14.3194 26.0133Z" fill="black"/>
<path d="M25.9212 22.038C25.8818 22.7899 25.7118 23.5293 25.42 24.2221C25.1811 24.75 24.7879 25.1932 24.2921 25.4931C23.9591 25.6722 23.5939 25.7885 23.218 25.8333C22.6743 25.9408 22.1147 25.9408 21.571 25.8333C21.2142 25.7384 20.8797 25.5741 20.5864 25.3499C20.4087 25.1933 20.2639 25.0029 20.1603 24.7899C20.0568 24.5768 19.9966 24.3453 19.9833 24.1088C19.97 23.8723 20.0038 23.6355 20.0827 23.4122C20.1617 23.1888 20.2842 22.9834 20.4432 22.8078C20.7765 22.4799 21.1901 22.2453 21.6426 22.1275C22.1296 21.9754 22.6362 21.9038 23.1464 21.9127C23.6118 21.8859 24.0773 21.8859 24.5428 21.9127C24.976 21.9467 25.4056 22.0058 25.8317 22.0917L25.9212 22.038Z" fill="black"/>
</svg>
