<svg width="43" height="43" viewBox="0 0 43 43" fill="none" xmlns="http://www.w3.org/2000/svg">
<g clip-path="url(#clip0_1792_6834)">
<path d="M1.73148 21.2309C1.7305 24.7597 2.65975 28.2054 4.4267 31.2424L1.5625 41.619L12.2646 38.8346C15.2247 40.4336 18.5412 41.2714 21.9115 41.2716H21.9204C33.0463 41.2716 42.103 32.2883 42.1078 21.2467C42.1099 15.8963 40.0119 10.8651 36.2 7.07987C32.3889 3.29498 27.3202 1.20947 21.9195 1.20703C10.7923 1.20703 1.73624 10.1898 1.73165 21.2309" fill="url(#paint0_linear_1792_6834)"/>
<path d="M1.00758 21.2246C1.00643 24.8804 1.96898 28.4492 3.79894 31.595L0.832031 42.3436L11.9179 39.4594C14.9724 41.1119 18.4115 41.9831 21.9109 41.9844H21.92C33.445 41.9844 42.8271 32.678 42.832 21.2412C42.834 15.6985 40.6605 10.4864 36.7125 6.56558C32.764 2.64526 27.514 0.484701 21.92 0.482422C10.3929 0.482422 1.01217 9.78754 1.00758 21.2246ZM7.60962 31.0532L7.19569 30.4012C5.45564 27.6559 4.53722 24.4835 4.53853 21.2259C4.54214 11.7197 12.339 3.98568 21.9265 3.98568C26.5695 3.98763 30.9329 5.78354 34.2148 9.04196C37.4966 12.3007 39.3024 16.6326 39.3012 21.2399C39.297 30.746 31.4999 38.481 21.92 38.481H21.9131C18.7938 38.4794 15.7345 37.6482 13.0665 36.0774L12.4316 35.7038L5.853 37.4152L7.60962 31.0532Z" fill="url(#paint1_linear_1792_6834)"/>
<path d="M16.6962 12.5524C16.3047 11.6892 15.8928 11.6717 15.5205 11.6566C15.2157 11.6436 14.8672 11.6445 14.5191 11.6445C14.1706 11.6445 13.6044 11.7746 13.1258 12.2931C12.6468 12.8121 11.2969 14.0662 11.2969 16.617C11.2969 19.1679 13.1693 21.6331 13.4303 21.9793C13.6917 22.3249 17.0451 27.727 22.3562 29.8052C26.7701 31.5322 27.6683 31.1887 28.6263 31.1021C29.5844 31.0158 31.7179 29.8483 32.1532 28.6376C32.5887 27.4271 32.5887 26.3895 32.4581 26.1726C32.3276 25.9566 31.9791 25.8269 31.4565 25.5677C30.9338 25.3084 28.365 24.0541 27.8861 23.881C27.407 23.7082 27.0587 23.6219 26.7102 24.141C26.3617 24.6593 25.3611 25.8269 25.0561 26.1726C24.7515 26.5192 24.4465 26.5624 23.9241 26.303C23.4012 26.0429 21.7185 25.4961 19.722 23.73C18.1686 22.3557 17.1199 20.6586 16.8151 20.1395C16.5103 19.6211 16.7825 19.3402 17.0445 19.0818C17.2792 18.8495 17.5672 18.4764 17.8287 18.1738C18.0892 17.871 18.1762 17.6549 18.3504 17.3092C18.5248 16.9631 18.4375 16.6603 18.3071 16.401C18.1762 16.1416 17.1608 13.5775 16.6962 12.5524Z" fill="white"/>
</g>
<defs>
<linearGradient id="paint0_linear_1792_6834" x1="2028.83" y1="4042.4" x2="2028.83" y2="1.20703" gradientUnits="userSpaceOnUse">
<stop stop-color="#1FAF38"/>
<stop offset="1" stop-color="#60D669"/>
</linearGradient>
<linearGradient id="paint1_linear_1792_6834" x1="2100.83" y1="4186.6" x2="2100.83" y2="0.482422" gradientUnits="userSpaceOnUse">
<stop stop-color="#F9F9F9"/>
<stop offset="1" stop-color="white"/>
</linearGradient>
<clipPath id="clip0_1792_6834">
<rect width="42" height="42" fill="white" transform="translate(0.832031 0.482422)"/>
</clipPath>
</defs>
</svg>
