<svg width="36" height="37" viewBox="0 0 36 37" fill="none" xmlns="http://www.w3.org/2000/svg">
<path d="M5.11487 0.507812C2.2937 0.507812 0 2.81091 0 5.64365V31.3228C0 34.1556 2.2937 36.4587 5.11487 36.4587H30.6892C33.5104 36.4587 35.8041 34.1556 35.8041 31.3228V5.64365C35.8041 2.81091 33.5104 0.507812 30.6892 0.507812H5.11487ZM28.8591 7.2486L20.5634 16.7659L30.3216 29.7179H22.6813L16.7033 21.8617L9.85412 29.7179H6.05793L14.929 19.5345L5.57042 7.2486H13.4026L18.8131 14.4307L25.0629 7.2486H28.8591ZM25.8381 27.4389L12.2597 9.40725H9.99798L23.7282 27.4389H25.8301H25.8381Z" fill="black"/>
</svg>
